<svg width="100" height="100" viewBox="0 0 100 100" fill="none" xmlns="http://www.w3.org/2000/svg">
<rect width="100" height="100" rx="15" fill="#795AFF" fill-opacity="0.2"/>
<path fill-rule="evenodd" clip-rule="evenodd" d="M63.537 53.6551C67.3616 56.2514 70.0416 59.7688 70.0416 64.4588V72.8338H78.4166C79.952 72.8338 81.2082 71.5776 81.2082 70.0422V64.4588C81.2082 58.373 71.242 54.7718 63.537 53.6551Z" fill="#795AFF"/>
<path d="M42.1249 50.4993C48.2921 50.4993 53.2916 45.4999 53.2916 39.3327C53.2916 33.1655 48.2921 28.166 42.1249 28.166C35.9578 28.166 30.9583 33.1655 30.9583 39.3327C30.9583 45.4999 35.9578 50.4993 42.1249 50.4993Z" fill="#795AFF"/>
<path fill-rule="evenodd" clip-rule="evenodd" d="M58.8749 50.4993C65.0445 50.4993 70.0416 45.5023 70.0416 39.3327C70.0416 33.1631 65.0445 28.166 58.8749 28.166C57.5628 28.166 56.3345 28.4452 55.162 28.836C57.5643 31.807 58.8748 35.512 58.8748 39.3327C58.8748 43.1533 57.5643 46.8584 55.162 49.8293C56.3345 50.2202 57.5628 50.4993 58.8749 50.4993ZM42.1249 53.291C34.6711 53.291 19.7916 57.0318 19.7916 64.4577V70.041C19.7916 71.5764 21.0478 72.8327 22.5832 72.8327H61.6666C63.202 72.8327 64.4582 71.5764 64.4582 70.041V64.4577C64.4582 57.0318 49.5786 53.291 42.1249 53.291Z" fill="#795AFF"/>
</svg>
