<svg width="92" height="74" viewBox="0 0 92 74" fill="none" xmlns="http://www.w3.org/2000/svg">
<path d="M9.17596 73.4077C6.65257 73.4077 4.49316 72.51 2.69773 70.7146C0.899245 68.9161 0 66.7551 0 64.2318V9.17596C0 6.65257 0.899245 4.49316 2.69773 2.69773C4.49316 0.899244 6.65257 0 9.17596 0H82.5837C85.1071 0 87.268 0.899244 89.0665 2.69773C90.8619 4.49316 91.7596 6.65257 91.7596 9.17596V64.2318C91.7596 66.7551 90.8619 68.9161 89.0665 70.7146C87.268 72.51 85.1071 73.4077 82.5837 73.4077H9.17596ZM9.17596 64.2318H57.3498V48.1738H9.17596V64.2318ZM66.5257 64.2318H82.5837V22.9399H66.5257V64.2318ZM9.17596 38.9978H57.3498V22.9399H9.17596V38.9978Z" fill="#795AFF"/>
</svg>
