<svg width="92" height="92" viewBox="0 0 92 92" fill="none" xmlns="http://www.w3.org/2000/svg">
<path d="M45.8798 91.7596C39.6096 91.7596 33.6834 90.5545 28.1014 88.1443C22.5193 85.7372 17.6454 82.4491 13.4795 78.2802C9.31055 74.1143 6.02249 69.2403 3.61533 63.6583C1.20511 58.0762 0 52.1501 0 45.8798C0 39.5331 1.24181 33.5687 3.72544 27.9867C6.21213 22.4046 9.57818 17.549 13.8236 13.4198C18.0659 9.29066 23.0164 6.02096 28.6749 3.61074C34.3334 1.20358 40.3742 0 46.7974 0C52.9147 0 58.6879 1.05218 64.1171 3.15653C69.5462 5.25783 74.3054 8.16355 78.3949 11.8737C82.4873 15.5808 85.7372 19.9776 88.1443 25.0641C90.5545 30.1476 91.7596 35.6333 91.7596 41.5212C91.7596 50.3149 89.0833 57.0623 83.7307 61.7634C78.378 66.4676 71.8784 68.8197 64.2318 68.8197H55.744C55.0558 68.8197 54.5786 69.0109 54.3125 69.3932C54.0434 69.7756 53.9088 70.1961 53.9088 70.6549C53.9088 71.5725 54.4823 72.8908 55.6293 74.6098C56.7763 76.3318 57.3498 78.3016 57.3498 80.5191C57.3498 84.3424 56.2976 87.1717 54.1932 89.0069C52.0919 90.842 49.3208 91.7596 45.8798 91.7596ZM20.6459 50.4678C22.634 50.4678 24.2781 49.8178 25.578 48.5179C26.8779 47.218 27.5279 45.574 27.5279 43.5858C27.5279 41.5977 26.8779 39.9537 25.578 38.6538C24.2781 37.3538 22.634 36.7039 20.6459 36.7039C18.6578 36.7039 17.0138 37.3538 15.7138 38.6538C14.4139 39.9537 13.7639 41.5977 13.7639 43.5858C13.7639 45.574 14.4139 47.218 15.7138 48.5179C17.0138 49.8178 18.6578 50.4678 20.6459 50.4678ZM34.4099 32.1159C36.398 32.1159 38.042 31.4659 39.3419 30.166C40.6419 28.8661 41.2918 27.222 41.2918 25.2339C41.2918 23.2458 40.6419 21.6017 39.3419 20.3018C38.042 19.0019 36.398 18.3519 34.4099 18.3519C32.4217 18.3519 30.7777 19.0019 29.4778 20.3018C28.1779 21.6017 27.5279 23.2458 27.5279 25.2339C27.5279 27.222 28.1779 28.8661 29.4778 30.166C30.7777 31.4659 32.4217 32.1159 34.4099 32.1159ZM57.3498 32.1159C59.3379 32.1159 60.9819 31.4659 62.2819 30.166C63.5818 28.8661 64.2318 27.222 64.2318 25.2339C64.2318 23.2458 63.5818 21.6017 62.2819 20.3018C60.9819 19.0019 59.3379 18.3519 57.3498 18.3519C55.3617 18.3519 53.7176 19.0019 52.4177 20.3018C51.1178 21.6017 50.4678 23.2458 50.4678 25.2339C50.4678 27.222 51.1178 28.8661 52.4177 30.166C53.7176 31.4659 55.3617 32.1159 57.3498 32.1159ZM71.1137 50.4678C73.1019 50.4678 74.7459 49.8178 76.0458 48.5179C77.3457 47.218 77.9957 45.574 77.9957 43.5858C77.9957 41.5977 77.3457 39.9537 76.0458 38.6538C74.7459 37.3538 73.1019 36.7039 71.1137 36.7039C69.1256 36.7039 67.4816 37.3538 66.1816 38.6538C64.8817 39.9537 64.2318 41.5977 64.2318 43.5858C64.2318 45.574 64.8817 47.218 66.1816 48.5179C67.4816 49.8178 69.1256 50.4678 71.1137 50.4678Z" fill="#795AFF"/>
</svg>
