<svg width="71" height="88" viewBox="0 0 71 88" fill="none" xmlns="http://www.w3.org/2000/svg">
<path d="M39.0308 34.2259C39.6756 32.4175 42.4075 32.4175 43.0524 34.2259L46.8336 44.8408C47.6659 47.1743 49.0682 49.2944 50.9294 51.0332C52.7905 52.772 55.0593 54.0817 57.556 54.8585L68.9057 58.3931C70.8403 58.9959 70.8403 61.5496 68.9057 62.1525L57.5501 65.6871C55.0539 66.4651 52.7859 67.776 50.9257 69.5157C49.0656 71.2555 47.6646 73.3763 46.8336 75.7102L43.0524 86.3196C42.9133 86.7156 42.6441 87.0605 42.283 87.305C41.9219 87.5494 41.4874 87.6811 41.0416 87.6811C40.5957 87.6811 40.1612 87.5494 39.8001 87.305C39.4391 87.0605 39.1698 86.7156 39.0308 86.3196L35.2495 75.7047C34.4178 73.3719 33.0164 71.2521 31.1563 69.5133C29.2962 67.7746 27.0286 66.4646 24.533 65.6871L13.1775 62.1525C12.7538 62.0225 12.385 61.7708 12.1234 61.4332C11.8619 61.0957 11.7211 60.6896 11.7211 60.2728C11.7211 59.856 11.8619 59.4499 12.1234 59.1123C12.385 58.7748 12.7538 58.5231 13.1775 58.3931L24.533 54.8585C27.0286 54.081 29.2962 52.771 31.1563 51.0322C33.0164 49.2934 34.4178 47.1737 35.2495 44.8408L39.0308 34.2259ZM16.3842 6.28294C16.4683 6.04562 16.6302 5.8391 16.847 5.69273C17.0638 5.54635 17.3244 5.46757 17.5919 5.46757C17.8593 5.46757 18.1199 5.54635 18.3367 5.69273C18.5535 5.8391 18.7155 6.04562 18.7995 6.28294L21.0683 12.6508C22.0825 15.4895 24.4626 17.7144 27.4994 18.6625L34.3115 20.7833C34.5654 20.8618 34.7863 21.0132 34.9429 21.2159C35.0995 21.4185 35.1838 21.6622 35.1838 21.9122C35.1838 22.1621 35.0995 22.4058 34.9429 22.6084C34.7863 22.8111 34.5654 22.9625 34.3115 23.0411L27.4994 25.1618C26.0017 25.6283 24.6408 26.4144 23.5245 27.4579C22.4082 28.5013 21.5673 29.7735 21.0683 31.1735L18.7995 37.5414C18.7155 37.7787 18.5535 37.9852 18.3367 38.1316C18.1199 38.278 17.8593 38.3567 17.5919 38.3567C17.3244 38.3567 17.0638 38.278 16.847 38.1316C16.6302 37.9852 16.4683 37.7787 16.3842 37.5414L14.1155 31.1735C13.6165 29.7735 12.7755 28.5013 11.6593 27.4579C10.543 26.4144 9.18209 25.6283 7.68439 25.1618L0.872253 23.0411C0.618377 22.9625 0.397451 22.8111 0.240866 22.6084C0.0842802 22.4058 0 22.1621 0 21.9122C0 21.6622 0.0842802 21.4185 0.240866 21.2159C0.397451 21.0132 0.618377 20.8618 0.872253 20.7833L7.68439 18.6625C9.18209 18.196 10.543 17.4099 11.6593 16.3664C12.7755 15.323 13.6165 14.0508 14.1155 12.6508L16.3842 6.28294ZM57.8257 0.534323C57.8835 0.378285 57.992 0.242979 58.1359 0.147218C58.2799 0.0514575 58.4522 0 58.6288 0C58.8055 0 58.9778 0.0514575 59.1217 0.147218C59.2657 0.242979 59.3741 0.378285 59.432 0.534323L60.9445 4.77591C61.6187 6.67202 63.2074 8.15713 65.2358 8.78734L69.7733 10.2012C69.9402 10.2553 70.085 10.3567 70.1874 10.4912C70.2898 10.6258 70.3449 10.7868 70.3449 10.952C70.3449 11.1171 70.2898 11.2782 70.1874 11.4127C70.085 11.5473 69.9402 11.6486 69.7733 11.7027L65.2358 13.1166C64.2362 13.4275 63.3278 13.9519 62.5829 14.6482C61.838 15.3445 61.277 16.1936 60.9445 17.128L59.432 21.3696C59.3741 21.5257 59.2657 21.661 59.1217 21.7567C58.9778 21.8525 58.8055 21.9039 58.6288 21.9039C58.4522 21.9039 58.2799 21.8525 58.1359 21.7567C57.992 21.661 57.8835 21.5257 57.8257 21.3696L56.3132 17.128C55.9806 16.1936 55.4196 15.3445 54.6747 14.6482C53.9298 13.9519 53.0215 13.4275 52.0219 13.1166L47.4902 11.7027C47.3233 11.6486 47.1786 11.5473 47.0761 11.4127C46.9737 11.2782 46.9186 11.1171 46.9186 10.952C46.9186 10.7868 46.9737 10.6258 47.0761 10.4912C47.1786 10.3567 47.3233 10.2553 47.4902 10.2012L52.0277 8.78734C54.0561 8.15713 55.6449 6.67202 56.319 4.77591L57.8257 0.539803V0.534323Z" fill="#795AFF"/>
</svg>
