<svg width="189" height="189" viewBox="0 0 189 189" fill="none" xmlns="http://www.w3.org/2000/svg">
<rect width="188.749" height="188.749" rx="28.3124" fill="#795AFF" fill-opacity="0.2"/>
<path fill-rule="evenodd" clip-rule="evenodd" d="M119.926 101.273C127.145 106.173 132.203 112.812 132.203 121.665V137.472H148.011C150.909 137.472 153.28 135.101 153.28 132.203V121.665C153.28 110.178 134.469 103.38 119.926 101.273Z" fill="#795AFF"/>
<path d="M79.5106 95.3162C91.1511 95.3162 100.588 85.8797 100.588 74.2391C100.588 62.5986 91.1511 53.1621 79.5106 53.1621C67.8701 53.1621 58.4336 62.5986 58.4336 74.2391C58.4336 85.8797 67.8701 95.3162 79.5106 95.3162Z" fill="#795AFF"/>
<path fill-rule="evenodd" clip-rule="evenodd" d="M111.126 95.3162C122.771 95.3162 132.203 85.8842 132.203 74.2391C132.203 62.5941 122.771 53.1621 111.126 53.1621C108.649 53.1621 106.331 53.689 104.118 54.4267C108.652 60.0344 111.126 67.0276 111.126 74.2391C111.126 81.4506 108.652 88.4439 104.118 94.0515C106.331 94.7892 108.649 95.3162 111.126 95.3162ZM79.5105 100.585C65.4416 100.585 37.3564 107.646 37.3564 121.662V132.201C37.3564 135.099 39.7276 137.47 42.6257 137.47H116.395C119.293 137.47 121.665 135.099 121.665 132.201V121.662C121.665 107.646 93.5794 100.585 79.5105 100.585Z" fill="#795AFF"/>
</svg>
