<svg width="196" height="189" viewBox="0 0 196 189" fill="none" xmlns="http://www.w3.org/2000/svg">
<rect width="195.258" height="188.749" rx="28.3124" fill="#795AFF" fill-opacity="0.2"/>
<path d="M96.8077 80.0589C93.1469 80.0589 89.7188 81.4318 87.1232 83.9409C84.5398 86.45 83.1074 89.7638 83.1074 93.3026C83.1074 96.8413 84.5398 100.155 87.1232 102.664C89.7188 105.161 93.1469 106.546 96.8077 106.546C100.468 106.546 103.897 105.161 106.492 102.664C109.076 100.155 110.508 96.8413 110.508 93.3026C110.508 89.7638 109.076 86.45 106.492 83.9409C105.224 82.706 103.715 81.7269 102.053 81.0605C100.39 80.394 98.6074 80.0536 96.8077 80.0589ZM147.287 107.931L139.28 101.315C139.659 99.0663 139.855 96.7703 139.855 94.4861C139.855 92.2019 139.659 89.894 139.28 87.6572L147.287 81.0413C147.892 80.5407 148.325 79.874 148.528 79.1299C148.732 78.3857 148.696 77.5993 148.426 76.8753L148.315 76.5675C146.112 70.6107 142.81 65.0892 138.57 60.2704L138.349 60.0219C137.834 59.4366 137.148 59.0159 136.381 58.8152C135.614 58.6145 134.802 58.6432 134.052 58.8975L124.11 62.3179C120.437 59.4064 116.348 57.1104 111.916 55.5126L109.994 45.4645C109.849 44.7076 109.469 44.0112 108.905 43.4679C108.34 42.9246 107.619 42.5601 106.835 42.4229L106.504 42.3637C100.138 41.2512 93.4285 41.2512 87.062 42.3637L86.7314 42.4229C85.9478 42.5601 85.2259 42.9246 84.6617 43.4679C84.0975 44.0112 83.7176 44.7076 83.5726 45.4645L81.6382 55.56C77.248 57.1705 73.1583 59.4609 69.5295 62.3416L59.5144 58.8975C58.7647 58.6412 57.952 58.6115 57.1844 58.8123C56.4168 59.0131 55.7306 59.435 55.217 60.0219L54.9966 60.2704C50.764 65.0943 47.4629 70.6145 45.2509 76.5675L45.1407 76.8753C44.5898 78.3547 45.0428 80.0116 46.2793 81.0413L54.3844 87.7282C54.0049 89.9532 53.8213 92.2256 53.8213 94.4743C53.8213 96.7466 54.0049 99.019 54.3844 101.22L46.3038 107.907C45.699 108.408 45.266 109.075 45.0627 109.819C44.8593 110.563 44.895 111.349 45.1652 112.073L45.2754 112.381C47.4914 118.334 50.7604 123.838 55.0211 128.678L55.2415 128.927C55.7564 129.512 56.4426 129.933 57.2097 130.133C57.9769 130.334 58.789 130.305 59.5389 130.051L69.554 126.607C73.2025 129.507 77.2673 131.803 81.6626 133.389L83.5971 143.484C83.7421 144.241 84.122 144.937 84.6862 145.481C85.2504 146.024 85.9723 146.388 86.7559 146.526L87.0864 146.585C93.5156 147.703 100.1 147.703 106.529 146.585L106.859 146.526C107.643 146.388 108.365 146.024 108.929 145.481C109.493 144.937 109.873 144.241 110.018 143.484L111.94 133.436C116.373 131.826 120.462 129.542 124.135 126.631L134.076 130.051C134.826 130.307 135.639 130.337 136.406 130.136C137.174 129.935 137.86 129.514 138.374 128.927L138.594 128.678C142.855 123.814 146.124 118.334 148.34 112.381L148.45 112.073C148.977 110.606 148.524 108.961 147.287 107.931ZM96.8077 114.109C84.9194 114.109 75.2839 104.795 75.2839 93.3026C75.2839 81.8106 84.9194 72.4962 96.8077 72.4962C108.696 72.4962 118.331 81.8106 118.331 93.3026C118.331 104.795 108.696 114.109 96.8077 114.109Z" fill="#795AFF"/>
</svg>
