<svg width="100" height="100" viewBox="0 0 100 100" fill="none" xmlns="http://www.w3.org/2000/svg">
<rect width="100" height="100" rx="15" fill="#795AFF" fill-opacity="0.2"/>
<path d="M49.5794 42.4131C47.7046 42.4131 45.9489 43.1405 44.6196 44.4698C43.2965 45.7991 42.5629 47.5548 42.5629 49.4296C42.5629 51.3045 43.2965 53.0602 44.6196 54.3895C45.9489 55.7125 47.7046 56.4461 49.5794 56.4461C51.4543 56.4461 53.21 55.7125 54.5393 54.3895C55.8623 53.0602 56.596 51.3045 56.596 49.4296C56.596 47.5548 55.8623 45.7991 54.5393 44.4698C53.89 43.8155 53.1172 43.2968 52.2657 42.9437C51.4143 42.5906 50.5012 42.4103 49.5794 42.4131ZM75.4321 57.1798L71.3313 53.6746C71.5256 52.4833 71.626 51.2668 71.626 50.0567C71.626 48.8465 71.5256 47.6238 71.3313 46.4387L75.4321 42.9335C75.7418 42.6684 75.9636 42.3151 76.0677 41.9209C76.1719 41.5266 76.1536 41.11 76.0152 40.7264L75.9588 40.5634C74.8302 37.4074 73.1391 34.4821 70.9676 31.9291L70.8547 31.7974C70.591 31.4874 70.2396 31.2645 69.8467 31.1581C69.4538 31.0518 69.0379 31.067 68.6538 31.2017L63.5623 33.0139C61.6812 31.4714 59.5869 30.2549 57.317 29.4084L56.3326 24.0849C56.2583 23.6839 56.0638 23.3149 55.7748 23.0271C55.4859 22.7392 55.1162 22.5461 54.7148 22.4734L54.5455 22.4421C51.285 21.8526 47.8488 21.8526 44.5882 22.4421L44.4189 22.4734C44.0176 22.5461 43.6479 22.7392 43.359 23.0271C43.07 23.3149 42.8755 23.6839 42.8012 24.0849L41.8105 29.4335C39.5621 30.2867 37.4676 31.5002 35.6091 33.0264L30.48 31.2017C30.096 31.0659 29.6798 31.0502 29.2867 31.1566C28.8936 31.263 28.5421 31.4865 28.2791 31.7974L28.1662 31.9291C25.9985 34.4848 24.3079 37.4094 23.175 40.5634L23.1186 40.7264C22.8364 41.5102 23.0684 42.388 23.7017 42.9335L27.8527 46.4763C27.6583 47.6551 27.5643 48.859 27.5643 50.0504C27.5643 51.2543 27.6583 52.4582 27.8527 53.6245L23.7143 57.1672C23.4045 57.4324 23.1828 57.7856 23.0786 58.1799C22.9744 58.5742 22.9928 58.9908 23.1311 59.3744L23.1876 59.5374C24.3225 62.6914 25.9967 65.6071 28.1787 68.1717L28.2916 68.3034C28.5553 68.6134 28.9068 68.8363 29.2996 68.9426C29.6925 69.049 30.1084 69.0338 30.4925 68.899L35.6216 67.0744C37.4902 68.6106 39.572 69.8271 41.823 70.6673L42.8137 76.0159C42.888 76.4169 43.0825 76.7859 43.3715 77.0737C43.6605 77.3615 44.0302 77.5546 44.4315 77.6274L44.6008 77.6587C47.8934 78.2513 51.2654 78.2513 54.5581 77.6587L54.7274 77.6274C55.1287 77.5546 55.4984 77.3615 55.7874 77.0737C56.0763 76.7859 56.2709 76.4169 56.3451 76.0159L57.3296 70.6924C59.5994 69.8396 61.6937 68.6294 63.5748 67.0869L68.6664 68.899C69.0503 69.0348 69.4665 69.0506 69.8596 68.9442C70.2528 68.8378 70.6042 68.6143 70.8673 68.3034L70.9801 68.1717C73.1622 65.5946 74.8364 62.6914 75.9713 59.5374L76.0277 59.3744C76.2974 58.5969 76.0654 57.7253 75.4321 57.1798ZM49.5794 60.4529C43.4909 60.4529 38.5562 55.5181 38.5562 49.4296C38.5562 43.3411 43.4909 38.4064 49.5794 38.4064C55.6679 38.4064 60.6027 43.3411 60.6027 49.4296C60.6027 55.5181 55.6679 60.4529 49.5794 60.4529Z" fill="#795AFF"/>
</svg>
