<svg width="40" height="40" viewBox="0 0 40 40" fill="none" xmlns="http://www.w3.org/2000/svg">
<path d="M33.3331 29.9993H29.9998V15.416L19.9998 21.666L9.9998 15.416V29.9993H6.66646V9.99935H8.66646L19.9998 17.0827L31.3331 9.99935H33.3331M33.3331 6.66602H6.66646C4.81646 6.66602 3.33313 8.14935 3.33313 9.99935V29.9993C3.33313 30.8834 3.68432 31.7313 4.30944 32.3564C4.93456 32.9815 5.78241 33.3327 6.66646 33.3327H33.3331C34.2172 33.3327 35.065 32.9815 35.6902 32.3564C36.3153 31.7313 36.6665 30.8834 36.6665 29.9993V9.99935C36.6665 9.11529 36.3153 8.26745 35.6902 7.64233C35.065 7.0172 34.2172 6.66602 33.3331 6.66602Z" fill="#795AFF"/>
</svg>
