<svg width="40" height="40" viewBox="0 0 40 40" fill="none" xmlns="http://www.w3.org/2000/svg">
<path d="M13 3.33398H27C32.3333 3.33398 36.6666 7.66732 36.6666 13.0007V27.0007C36.6666 29.5644 35.6482 32.0232 33.8353 33.836C32.0225 35.6489 29.5637 36.6673 27 36.6673H13C7.66665 36.6673 3.33331 32.334 3.33331 27.0007V13.0007C3.33331 10.4369 4.35176 7.97814 6.16461 6.16529C7.97747 4.35243 10.4362 3.33398 13 3.33398ZM12.6666 6.66732C11.0753 6.66732 9.54922 7.29946 8.42401 8.42468C7.29879 9.5499 6.66665 11.076 6.66665 12.6673V27.334C6.66665 30.6507 9.34998 33.334 12.6666 33.334H27.3333C28.9246 33.334 30.4507 32.7018 31.576 31.5766C32.7012 30.4514 33.3333 28.9253 33.3333 27.334V12.6673C33.3333 9.35065 30.65 6.66732 27.3333 6.66732H12.6666ZM28.75 9.16732C29.3025 9.16732 29.8324 9.38681 30.2231 9.77751C30.6138 10.1682 30.8333 10.6981 30.8333 11.2507C30.8333 11.8032 30.6138 12.3331 30.2231 12.7238C29.8324 13.1145 29.3025 13.334 28.75 13.334C28.1974 13.334 27.6675 13.1145 27.2768 12.7238C26.8861 12.3331 26.6666 11.8032 26.6666 11.2507C26.6666 10.6981 26.8861 10.1682 27.2768 9.77751C27.6675 9.38681 28.1974 9.16732 28.75 9.16732ZM20 11.6673C22.2101 11.6673 24.3297 12.5453 25.8925 14.1081C27.4553 15.6709 28.3333 17.7905 28.3333 20.0007C28.3333 22.2108 27.4553 24.3304 25.8925 25.8932C24.3297 27.456 22.2101 28.334 20 28.334C17.7898 28.334 15.6702 27.456 14.1074 25.8932C12.5446 24.3304 11.6666 22.2108 11.6666 20.0007C11.6666 17.7905 12.5446 15.6709 14.1074 14.1081C15.6702 12.5453 17.7898 11.6673 20 11.6673ZM20 15.0007C18.6739 15.0007 17.4021 15.5274 16.4644 16.4651C15.5268 17.4028 15 18.6746 15 20.0007C15 21.3267 15.5268 22.5985 16.4644 23.5362C17.4021 24.4739 18.6739 25.0007 20 25.0007C21.3261 25.0007 22.5978 24.4739 23.5355 23.5362C24.4732 22.5985 25 21.3267 25 20.0007C25 18.6746 24.4732 17.4028 23.5355 16.4651C22.5978 15.5274 21.3261 15.0007 20 15.0007Z" fill="#795AFF"/>
</svg>
