<svg width="40" height="40" viewBox="0 0 40 40" fill="none" xmlns="http://www.w3.org/2000/svg">
<path d="M31.6668 5C32.5508 5 33.3987 5.35119 34.0238 5.97631C34.6489 6.60143 35.0001 7.44928 35.0001 8.33333V31.6667C35.0001 32.5507 34.6489 33.3986 34.0238 34.0237C33.3987 34.6488 32.5508 35 31.6668 35H8.33342C7.44937 35 6.60152 34.6488 5.9764 34.0237C5.35128 33.3986 5.00009 32.5507 5.00009 31.6667V8.33333C5.00009 7.44928 5.35128 6.60143 5.9764 5.97631C6.60152 5.35119 7.44937 5 8.33342 5H31.6668ZM30.8334 30.8333V22C30.8334 20.559 30.261 19.177 29.242 18.1581C28.2231 17.1391 26.8411 16.5667 25.4001 16.5667C23.9834 16.5667 22.3334 17.4333 21.5334 18.7333V16.8833H16.8834V30.8333H21.5334V22.6167C21.5334 21.3333 22.5668 20.2833 23.8501 20.2833C24.4689 20.2833 25.0624 20.5292 25.5 20.9668C25.9376 21.4043 26.1834 21.9978 26.1834 22.6167V30.8333H30.8334ZM11.4668 14.2667C12.2094 14.2667 12.9216 13.9717 13.4467 13.4466C13.9718 12.9215 14.2668 12.2093 14.2668 11.4667C14.2668 9.91667 13.0168 8.65 11.4668 8.65C10.7197 8.65 10.0033 8.94675 9.47507 9.47498C8.94685 10.0032 8.65009 10.7196 8.65009 11.4667C8.65009 13.0167 9.91676 14.2667 11.4668 14.2667ZM13.7834 30.8333V16.8833H9.16676V30.8333H13.7834Z" fill="#795AFF"/>
</svg>
